REM DIRINDEX 1\2,1\3
REM DIRNAME cjc116,folder01,folder02
TITLE ""
FILE "Disc1Track04.mp3" MP3
  TRACK 01 AUDIO
    TITLE "0:"
    INDEX 01 00:00:00
  TRACK 02 AUDIO
    TITLE "3:cjc116_0491"
    INDEX 01 00:00:09
  TRACK 03 AUDIO
    TITLE "0:"
    INDEX 01 00:01:44
  TRACK 04 AUDIO
    TITLE "2:cjc116_0492"
    INDEX 01 00:02:26
  TRACK 05 AUDIO
    TITLE "0:"
    INDEX 01 00:03:39
  TRACK 06 AUDIO
    TITLE "2:cjc116_0493"
    INDEX 01 00:03:61
  TRACK 07 AUDIO
    TITLE "0:"
    INDEX 01 00:05:65
  TRACK 08 AUDIO
    TITLE "2:cjc116_0494"
    INDEX 01 00:06:28
  TRACK 09 AUDIO
    TITLE "0:"
    INDEX 01 00:08:68
  TRACK 10 AUDIO
    TITLE "2:cjc116_0495"
    INDEX 01 00:09:36
  TRACK 11 AUDIO
    TITLE "0:"
    INDEX 01 00:10:57
  TRACK 12 AUDIO
    TITLE "2:cjc116_0496"
    INDEX 01 00:11:07
  TRACK 13 AUDIO
    TITLE "0:"
    INDEX 01 00:14:06
  TRACK 14 AUDIO
    TITLE "2:cjc116_0497"
    INDEX 01 00:14:31
  TRACK 15 AUDIO
    TITLE "0:"
    INDEX 01 00:17:08
  TRACK 16 AUDIO
    TITLE "2:cjc116_0498"
    INDEX 01 00:17:49
  TRACK 17 AUDIO
    TITLE "0:"
    INDEX 01 00:18:60
  TRACK 18 AUDIO
    TITLE "2:cjc116_0499"
    INDEX 01 00:19:05
  TRACK 19 AUDIO
    TITLE "0:"
    INDEX 01 00:21:23
  TRACK 20 AUDIO
    TITLE "2:cjc116_0500"
    INDEX 01 00:21:58
  TRACK 21 AUDIO
    TITLE "0:"
    INDEX 01 00:23:32
  TRACK 22 AUDIO
    TITLE "2:cjc116_0501"
    INDEX 01 00:23:73
  TRACK 23 AUDIO
    TITLE "0:"
    INDEX 01 00:25:05
  TRACK 24 AUDIO
    TITLE "2:cjc116_0502"
    INDEX 01 00:25:25
  TRACK 25 AUDIO
    TITLE "0:"
    INDEX 01 00:26:56
  TRACK 26 AUDIO
    TITLE "2:cjc116_0503"
    INDEX 01 00:27:20
  TRACK 27 AUDIO
    TITLE "0:"
    INDEX 01 00:28:51
  TRACK 28 AUDIO
    TITLE "2:cjc116_0504"
    INDEX 01 00:29:13
  TRACK 29 AUDIO
    TITLE "0:"
    INDEX 01 00:30:26
  TRACK 30 AUDIO
    TITLE "2:cjc116_0505"
    INDEX 01 00:30:42
  TRACK 31 AUDIO
    TITLE "0:"
    INDEX 01 00:32:27
  TRACK 32 AUDIO
    TITLE "2:cjc116_0506"
    INDEX 01 00:32:58
  TRACK 33 AUDIO
    TITLE "0:"
    INDEX 01 00:34:36
  TRACK 34 AUDIO
    TITLE "2:cjc116_0507"
    INDEX 01 00:34:71
  TRACK 35 AUDIO
    TITLE "0:"
    INDEX 01 00:36:03
  TRACK 36 AUDIO
    TITLE "2:cjc116_0508"
    INDEX 01 00:36:31
  TRACK 37 AUDIO
    TITLE "0:"
    INDEX 01 00:39:47
  TRACK 38 AUDIO
    TITLE "2:cjc116_0509"
    INDEX 01 00:39:68
  TRACK 39 AUDIO
    TITLE "0:"
    INDEX 01 00:44:20
  TRACK 40 AUDIO
    TITLE "2:cjc116_0510"
    INDEX 01 00:44:63
  TRACK 41 AUDIO
    TITLE "0:"
    INDEX 01 00:46:02
  TRACK 42 AUDIO
    TITLE "2:cjc116_0511"
    INDEX 01 00:46:13
  TRACK 43 AUDIO
    TITLE "0:"
    INDEX 01 00:47:62
  TRACK 44 AUDIO
    TITLE "2:cjc116_0512"
    INDEX 01 00:48:26
  TRACK 45 AUDIO
    TITLE "0:"
    INDEX 01 00:50:11
  TRACK 46 AUDIO
    TITLE "2:cjc116_0513"
    INDEX 01 00:50:56
  TRACK 47 AUDIO
    TITLE "0:"
    INDEX 01 00:51:60
  TRACK 48 AUDIO
    TITLE "2:cjc116_0514"
    INDEX 01 00:52:10
  TRACK 49 AUDIO
    TITLE "0:"
    INDEX 01 00:54:03
  TRACK 50 AUDIO
    TITLE "2:cjc116_0515"
    INDEX 01 00:54:44
  TRACK 51 AUDIO
    TITLE "0:"
    INDEX 01 00:56:35
  TRACK 52 AUDIO
    TITLE "2:cjc116_0516"
    INDEX 01 00:56:71
  TRACK 53 AUDIO
    TITLE "0:"
    INDEX 01 00:58:17
  TRACK 54 AUDIO
    TITLE "2:cjc116_0517"
    INDEX 01 00:58:44
  TRACK 55 AUDIO
    TITLE "0:"
    INDEX 01 01:01:05
  TRACK 56 AUDIO
    TITLE "2:cjc116_0518"
    INDEX 01 01:01:38
  TRACK 57 AUDIO
    TITLE "0:"
    INDEX 01 01:04:00
  TRACK 58 AUDIO
    TITLE "2:cjc116_0519"
    INDEX 01 01:04:35
  TRACK 59 AUDIO
    TITLE "0:"
    INDEX 01 01:05:50
  TRACK 60 AUDIO
    TITLE "2:cjc116_0520"
    INDEX 01 01:05:68
  TRACK 61 AUDIO
    TITLE "0:"
    INDEX 01 01:07:35
  TRACK 62 AUDIO
    TITLE "2:cjc116_0521"
    INDEX 01 01:07:64
  TRACK 63 AUDIO
    TITLE "0:"
    INDEX 01 01:09:71
  TRACK 64 AUDIO
    TITLE "2:cjc116_0522"
    INDEX 01 01:10:31
  TRACK 65 AUDIO
    TITLE "0:"
    INDEX 01 01:11:45
  TRACK 66 AUDIO
    TITLE "2:cjc116_0523"
    INDEX 01 01:11:62
  TRACK 67 AUDIO
    TITLE "0:"
    INDEX 01 01:13:51
  TRACK 68 AUDIO
    TITLE "2:cjc116_0524"
    INDEX 01 01:14:12
  TRACK 69 AUDIO
    TITLE "0:"
    INDEX 01 01:16:32
  TRACK 70 AUDIO
    TITLE "2:cjc116_0525"
    INDEX 01 01:17:02
  TRACK 71 AUDIO
    TITLE "0:"
    INDEX 01 01:18:11
  TRACK 72 AUDIO
    TITLE "2:cjc116_0526"
    INDEX 01 01:18:31
  TRACK 73 AUDIO
    TITLE "0:"
    INDEX 01 01:20:69
  TRACK 74 AUDIO
    TITLE "2:cjc116_0527"
    INDEX 01 01:21:27
  TRACK 75 AUDIO
    TITLE "0:"
    INDEX 01 01:24:65
  TRACK 76 AUDIO
    TITLE "2:cjc116_0528"
    INDEX 01 01:25:27
  TRACK 77 AUDIO
    TITLE "0:"
    INDEX 01 01:26:36
  TRACK 78 AUDIO
    TITLE "2:cjc116_0529"
    INDEX 01 01:26:56
  TRACK 79 AUDIO
    TITLE "0:"
    INDEX 01 01:28:71
  TRACK 80 AUDIO
    TITLE "2:cjc116_0530"
    INDEX 01 01:29:29
  TRACK 81 AUDIO
    TITLE "0:"
    INDEX 01 01:31:45
  TRACK 82 AUDIO
    TITLE "2:cjc116_0531"
    INDEX 01 01:32:08
  TRACK 83 AUDIO
    TITLE "0:"
    INDEX 01 01:33:21
  TRACK 84 AUDIO
    TITLE "2:cjc116_0532"
    INDEX 01 01:33:46
  TRACK 85 AUDIO
    TITLE "0:"
    INDEX 01 01:35:35
  TRACK 86 AUDIO
    TITLE "2:cjc116_0533"
    INDEX 01 01:35:61
  TRACK 87 AUDIO
    TITLE "0:"
    INDEX 01 01:37:24
  TRACK 88 AUDIO
    TITLE "2:cjc116_0534"
    INDEX 01 01:37:66
  TRACK 89 AUDIO
    TITLE "0:"
    INDEX 01 01:39:02
  TRACK 90 AUDIO
    TITLE "2:cjc116_0535"
    INDEX 01 01:39:19
  TRACK 91 AUDIO
    TITLE "0:"
    INDEX 01 01:41:24
  TRACK 92 AUDIO
    TITLE "2:cjc116_0536"
    INDEX 01 01:41:46
  TRACK 93 AUDIO
    TITLE "0:"
    INDEX 01 01:43:23
  TRACK 94 AUDIO
    TITLE "2:cjc116_0537"
    INDEX 01 01:43:62
  TRACK 95 AUDIO
    TITLE "0:"
    INDEX 01 01:44:72
  TRACK 96 AUDIO
    TITLE "2:cjc116_0538"
    INDEX 01 01:45:20
  TRACK 97 AUDIO
    TITLE "0:"
    INDEX 01 01:47:05
  TRACK 98 AUDIO
    TITLE "2:cjc116_0539"
    INDEX 01 01:47:37
  TRACK 99 AUDIO
    TITLE "0:"
    INDEX 01 01:49:35
  TRACK 100 AUDIO
    TITLE "2:cjc116_0540"
    INDEX 01 01:49:69
  TRACK 101 AUDIO
    TITLE "0:"
    INDEX 01 01:51:17
  TRACK 102 AUDIO
    TITLE "2:cjc116_0541"
    INDEX 01 01:51:36
  TRACK 103 AUDIO
    TITLE "0:"
    INDEX 01 01:54:23
  TRACK 104 AUDIO
    TITLE "2:cjc116_0542"
    INDEX 01 01:54:66
  TRACK 105 AUDIO
    TITLE "0:"
    INDEX 01 01:57:35
  TRACK 106 AUDIO
    TITLE "2:cjc116_0543"
    INDEX 01 01:57:72
  TRACK 107 AUDIO
    TITLE "0:"
    INDEX 01 01:59:14
  TRACK 108 AUDIO
    TITLE "2:cjc116_0544"
    INDEX 01 01:59:36
  TRACK 109 AUDIO
    TITLE "0:"
    INDEX 01 02:03:12
  TRACK 110 AUDIO
    TITLE "2:cjc116_0545"
    INDEX 01 02:03:63
  TRACK 111 AUDIO
    TITLE "0:"
    INDEX 01 02:06:36
  TRACK 112 AUDIO
    TITLE "2:cjc116_0546"
    INDEX 01 02:07:00
  TRACK 113 AUDIO
    TITLE "0:"
    INDEX 01 02:08:09
  TRACK 114 AUDIO
    TITLE "2:cjc116_0547"
    INDEX 01 02:08:25
  TRACK 115 AUDIO
    TITLE "0:"
    INDEX 01 02:10:08
  TRACK 116 AUDIO
    TITLE "2:cjc116_0548"
    INDEX 01 02:10:42
  TRACK 117 AUDIO
    TITLE "0:"
    INDEX 01 02:13:44
  TRACK 118 AUDIO
    TITLE "2:cjc116_0549"
    INDEX 01 02:14:10
  TRACK 119 AUDIO
    TITLE "0:"
    INDEX 01 02:15:11
  TRACK 120 AUDIO
    TITLE "2:cjc116_0550"
    INDEX 01 02:15:39
  TRACK 121 AUDIO
    TITLE "0:"
    INDEX 01 02:17:65
  TRACK 122 AUDIO
    TITLE "2:cjc116_0551"
    INDEX 01 02:18:21
  TRACK 123 AUDIO
    TITLE "0:"
    INDEX 01 02:19:74
  TRACK 124 AUDIO
    TITLE "2:cjc116_0552"
    INDEX 01 02:20:40
  TRACK 125 AUDIO
    TITLE "0:"
    INDEX 01 02:21:53
  TRACK 126 AUDIO
    TITLE "2:cjc116_0553"
    INDEX 01 02:21:71
  TRACK 127 AUDIO
    TITLE "0:"
    INDEX 01 02:24:02
  TRACK 128 AUDIO
    TITLE "2:cjc116_0554"
    INDEX 01 02:24:26
  TRACK 129 AUDIO
    TITLE "0:"
    INDEX 01 02:26:09
  TRACK 130 AUDIO
    TITLE "2:cjc116_0555"
    INDEX 01 02:26:50
  TRACK 131 AUDIO
    TITLE "0:"
    INDEX 01 02:27:56
  TRACK 132 AUDIO
    TITLE "2:cjc116_0556"
    INDEX 01 02:28:14
  TRACK 133 AUDIO
    TITLE "0:"
    INDEX 01 02:29:66
  TRACK 134 AUDIO
    TITLE "2:cjc116_0557"
    INDEX 01 02:30:27
  TRACK 135 AUDIO
    TITLE "0:"
    INDEX 01 02:32:22
  TRACK 136 AUDIO
    TITLE "2:cjc116_0558"
    INDEX 01 02:32:63
  TRACK 137 AUDIO
    TITLE "0:"
    INDEX 01 02:34:09
  TRACK 138 AUDIO
    TITLE "2:cjc116_0559"
    INDEX 01 02:34:18
  TRACK 139 AUDIO
    TITLE "0:"
    INDEX 01 02:35:71
  TRACK 140 AUDIO
    TITLE "2:cjc116_0560"
    INDEX 01 02:36:25
  TRACK 141 AUDIO
    TITLE "0:"
    INDEX 01 02:38:08
  TRACK 142 AUDIO
    TITLE "2:cjc116_0561"
    INDEX 01 02:38:50
  TRACK 143 AUDIO
    TITLE "0:"
    INDEX 01 02:39:47
  TRACK 144 AUDIO
    TITLE "2:cjc116_0562"
    INDEX 01 02:39:73
  TRACK 145 AUDIO
    TITLE "0:"
    INDEX 01 02:42:40
  TRACK 146 AUDIO
    TITLE "2:cjc116_0563"
    INDEX 01 02:43:00
  TRACK 147 AUDIO
    TITLE "0:"
    INDEX 01 02:45:38
  TRACK 148 AUDIO
    TITLE "2:cjc116_0564"
    INDEX 01 02:46:12
  TRACK 149 AUDIO
    TITLE "0:"
    INDEX 01 02:47:17
  TRACK 150 AUDIO
    TITLE "2:cjc116_0565"
    INDEX 01 02:47:39
  TRACK 151 AUDIO
    TITLE "0:"
    INDEX 01 02:49:02
  TRACK 152 AUDIO
    TITLE "2:cjc116_0566"
    INDEX 01 02:49:28
  TRACK 153 AUDIO
    TITLE "0:"
    INDEX 01 02:51:15
  TRACK 154 AUDIO
    TITLE "2:cjc116_0567"
    INDEX 01 02:51:46
  TRACK 155 AUDIO
    TITLE "0:"
    INDEX 01 02:52:44
  TRACK 156 AUDIO
    TITLE "2:cjc116_0568"
    INDEX 01 02:52:63
  TRACK 157 AUDIO
    TITLE "0:"
    INDEX 01 02:54:27
  TRACK 158 AUDIO
    TITLE "2:cjc116_0569"
    INDEX 01 02:54:56
  TRACK 159 AUDIO
    TITLE "0:"
    INDEX 01 02:56:38
  TRACK 160 AUDIO
    TITLE "2:cjc116_0570"
    INDEX 01 02:57:14
  TRACK 161 AUDIO
    TITLE "0:"
    INDEX 01 02:58:11
  TRACK 162 AUDIO
    TITLE "2:cjc116_0571"
    INDEX 01 02:58:37
  TRACK 163 AUDIO
    TITLE "0:"
    INDEX 01 02:59:63
  TRACK 164 AUDIO
    TITLE "2:cjc116_0572"
    INDEX 01 03:00:30
  TRACK 165 AUDIO
    TITLE "0:"
    INDEX 01 03:02:11
  TRACK 166 AUDIO
    TITLE "2:cjc116_0573"
    INDEX 01 03:02:46
  TRACK 167 AUDIO
    TITLE "0:"
    INDEX 01 03:03:57
  TRACK 168 AUDIO
    TITLE "2:cjc116_0574"
    INDEX 01 03:04:00
  TRACK 169 AUDIO
    TITLE "0:"
    INDEX 01 03:05:35
  TRACK 170 AUDIO
    TITLE "2:cjc116_0575"
    INDEX 01 03:06:09
  TRACK 171 AUDIO
    TITLE "0:"
    INDEX 01 03:07:47
  TRACK 172 AUDIO
    TITLE "2:cjc116_0576"
    INDEX 01 03:08:19
  TRACK 173 AUDIO
    TITLE "0:"
    INDEX 01 03:09:21
  TRACK 174 AUDIO
    TITLE "2:cjc116_0577"
    INDEX 01 03:09:48
  TRACK 175 AUDIO
    TITLE "0:"
    INDEX 01 03:11:35
  TRACK 176 AUDIO
    TITLE "2:cjc116_0578"
    INDEX 01 03:11:71
  TRACK 177 AUDIO
    TITLE "0:"
    INDEX 01 03:13:48
  TRACK 178 AUDIO
    TITLE "2:cjc116_0579"
    INDEX 01 03:14:16
  TRACK 179 AUDIO
    TITLE "0:"
    INDEX 01 03:15:17
  TRACK 180 AUDIO
    TITLE "2:cjc116_0580"
    INDEX 01 03:15:35
  TRACK 181 AUDIO
    TITLE "0:"
    INDEX 01 03:17:20
  TRACK 182 AUDIO
    TITLE "2:cjc116_0581"
    INDEX 01 03:17:54
  TRACK 183 AUDIO
    TITLE "0:"
    INDEX 01 03:19:68
  TRACK 184 AUDIO
    TITLE "2:cjc116_0582"
    INDEX 01 03:20:34
  TRACK 185 AUDIO
    TITLE "0:"
    INDEX 01 03:21:38
  TRACK 186 AUDIO
    TITLE "2:cjc116_0583"
    INDEX 01 03:21:71
  TRACK 187 AUDIO
    TITLE "0:"
    INDEX 01 03:25:18
  TRACK 188 AUDIO
    TITLE "2:cjc116_0584"
    INDEX 01 03:25:49
  TRACK 189 AUDIO
    TITLE "0:"
    INDEX 01 03:29:35
  TRACK 190 AUDIO
    TITLE "2:cjc116_0585"
    INDEX 01 03:30:03
  TRACK 191 AUDIO
    TITLE "0:"
    INDEX 01 03:31:03
  TRACK 192 AUDIO
    TITLE "2:cjc116_0586"
    INDEX 01 03:31:28
  TRACK 193 AUDIO
    TITLE "0:"
    INDEX 01 03:32:71
  TRACK 194 AUDIO
    TITLE "2:cjc116_0587"
    INDEX 01 03:33:35
  TRACK 195 AUDIO
    TITLE "0:"
    INDEX 01 03:35:26
  TRACK 196 AUDIO
    TITLE "2:cjc116_0588"
    INDEX 01 03:35:69
  TRACK 197 AUDIO
    TITLE "0:"
    INDEX 01 03:37:05
  TRACK 198 AUDIO
    TITLE "2:cjc116_0589"
    INDEX 01 03:37:37
  TRACK 199 AUDIO
    TITLE "0:"
    INDEX 01 03:40:39
  TRACK 200 AUDIO
    TITLE "2:cjc116_0590"
    INDEX 01 03:41:11
  TRACK 201 AUDIO
    TITLE "0:"
    INDEX 01 03:43:33
  TRACK 202 AUDIO
    TITLE "2:cjc116_0591"
    INDEX 01 03:44:01
  TRACK 203 AUDIO
    TITLE "0:"
    INDEX 01 03:45:05
  TRACK 204 AUDIO
    TITLE "2:cjc116_0592"
    INDEX 01 03:45:32
  TRACK 205 AUDIO
    TITLE "0:"
    INDEX 01 03:47:15
  TRACK 206 AUDIO
    TITLE "2:cjc116_0593"
    INDEX 01 03:47:49
  TRACK 207 AUDIO
    TITLE "0:"
    INDEX 01 03:48:56
  TRACK 208 AUDIO
    TITLE "2:cjc116_0594"
    INDEX 01 03:49:22
  TRACK 209 AUDIO
    TITLE "0:"
    INDEX 01 03:50:41
  TRACK 210 AUDIO
    TITLE "2:cjc116_0595"
    INDEX 01 03:50:57
  TRACK 211 AUDIO
    TITLE "0:"
    INDEX 01 03:52:36
  TRACK 212 AUDIO
    TITLE "2:cjc116_0596"
    INDEX 01 03:52:72
  TRACK 213 AUDIO
    TITLE "0:"
    INDEX 01 03:55:05
  TRACK 214 AUDIO
    TITLE "2:cjc116_0597"
    INDEX 01 03:55:52
  TRACK 215 AUDIO
    TITLE "0:"
    INDEX 01 03:56:58
  TRACK 216 AUDIO
    TITLE "2:cjc116_0598"
    INDEX 01 03:57:12
  TRACK 217 AUDIO
    TITLE "0:"
    INDEX 01 03:58:60
  TRACK 218 AUDIO
    TITLE "2:cjc116_0599"
    INDEX 01 03:59:19
  TRACK 219 AUDIO
    TITLE "0:"
    INDEX 01 04:00:48
  TRACK 220 AUDIO
    TITLE "2:cjc116_0600"
    INDEX 01 04:01:16
  TRACK 221 AUDIO
    TITLE "0:"
    INDEX 01 04:02:23
  TRACK 222 AUDIO
    TITLE "2:cjc116_0601"
    INDEX 01 04:02:46
  TRACK 223 AUDIO
    TITLE "0:"
    INDEX 01 04:04:30
  TRACK 224 AUDIO
    TITLE "2:cjc116_0602"
    INDEX 01 04:04:61
  TRACK 225 AUDIO
    TITLE "0:"
    INDEX 01 04:06:48
